# xmcd
#
# Track frame offsets:
#	150
#	12776
#	25365
#	37052
#	50971
#	63750
#	75209
#	89390
#	105032
#	117358
#	129677
#	142907
#	153462
#	163057
#	176457
#	186525
#	197492
#	209635
#	221457
#	233696
#	246284
#	258569
#	269704
#	280862
#	293856
#
# Disc length: 4087 seconds
#
# Revision: 1
# Processed by: cddbd v1.5.2PL0 Copyright (c) Steve Scherf et al.
# Submitted via: audiograbber 1.83.01
#
DISCID=6f0ff519
DTITLE=The Delmore Brothers - More from the 1930s plus the 1940s and 1950's, Cd
DTITLE=B - Fiddlin' Arthur Smith
DYEAR=2008
DGENRE=Country
TTITLE0=Mocking Bird
TTITLE1=Smith's Waltz
TTITLE2=Doin' the Goofus
TTITLE3=There's More Pretty Girls Than One
TTITLE4=Bonaparte's Retreat
TTITLE5=Little Darling They Have Taken You from Me
TTITLE6=Never Alone
TTITLE7=Little Darling
TTITLE8=Cheatham County Breakdown No. 2
TTITLE9=It's Hard to Please Your Mind
TTITLE10=Love Letters
TTITLE11=Walking in My Sleep
TTITLE12=Lonesome for You
TTITLE13=Sweet Heaven
TTITLE14=Beautiful Mabel Clare
TTITLE15=Beautiful Memories
TTITLE16=Beautiful Brown Eyes
TTITLE17=Nellie's Blues Eyes
TTITLE18=Across the Blue Ridge Mountains
TTITLE19=Lonesome Ramblers Blues
TTITLE20=More Like His Dad Every Day
TTITLE21=Henpecked Husband Blues
TTITLE22=Her Little Brown Hand
TTITLE23=Lost Love
TTITLE24=Paris Waltz
EXTD=
EXTT0=
EXTT1=
EXTT2=
EXTT3=
EXTT4=
EXTT5=
EXTT6=
EXTT7=
EXTT8=
EXTT9=
EXTT10=
EXTT11=
EXTT12=
EXTT13=
EXTT14=
EXTT15=
EXTT16=
EXTT17=
EXTT18=
EXTT19=
EXTT20=
EXTT21=
EXTT22=
EXTT23=
EXTT24=
PLAYORDER=
